<svg aria-hidden="true" style="position: absolute; width: 0; height: 0; overflow: hidden;" version="1.1" xmlns="http://www.w3.org/2000/svg" xmlns:xlink="http://www.w3.org/1999/xlink">
<defs>
<symbol id="icon-crypto" viewBox="0 0 44 32">
<path   d="M14.442 31.712c6.088 0 11.296-3.767 13.421-9.097 1.194 0.414 2.476 0.639 3.811 0.639 6.421 0 11.627-5.206 11.627-11.627s-5.206-11.627-11.627-11.627c-3.969 0-7.473 1.989-9.571 5.024-2.22-1.392-4.846-2.197-7.66-2.197-7.976 0-14.442 6.466-14.442 14.442s6.466 14.442 14.442 14.442zM31.674 22.228c-1.213 0-2.379-0.204-3.465-0.579 0.128-0.403 0.239-0.814 0.332-1.232 1.023 0.397 2.133 0.614 3.293 0.614 5.105 0 9.244-4.21 9.244-9.404s-4.139-9.404-9.244-9.404c-3.25 0-6.109 1.707-7.757 4.287-0.359-0.322-0.735-0.626-1.125-0.911 1.913-2.763 5.106-4.573 8.722-4.573 5.855 0 10.601 4.746 10.601 10.601s-4.746 10.601-10.601 10.601zM24.683 7.086c1.489-2.422 4.135-4.033 7.151-4.033 4.655 0 8.428 3.839 8.428 8.574s-3.773 8.574-8.428 8.574c-1.108 0-2.166-0.217-3.134-0.613 0.122-0.755 0.185-1.53 0.185-2.319 0-3.973-1.605-7.572-4.201-10.184zM1.185 17.269c0-7.322 5.935-13.257 13.257-13.257s13.257 5.935 13.257 13.257c0 7.322-5.935 13.257-13.257 13.257s-13.257-5.935-13.257-13.257zM3.625 17.098c0-5.88 4.767-10.647 10.647-10.647s10.647 4.767 10.647 10.647c0 5.88-4.767 10.647-10.647 10.647s-10.647-4.767-10.647-10.647zM14.271 5.859c-6.207 0-11.239 5.032-11.239 11.239s5.032 11.239 11.239 11.239c6.207 0 11.239-5.032 11.239-11.239s-5.032-11.239-11.239-11.239zM11.194 11.331c0.164 0 0.296 0.133 0.296 0.296v0.388h0.333v-0.388c0-0.164 0.133-0.296 0.296-0.296s0.296 0.133 0.296 0.296v0.388c2.141 0.005 3.893 1.669 4.039 3.774 1.612 0.145 2.901 1.496 2.901 3.15 0 1.603-1.299 2.902-2.902 2.902h-3.691v0.73c0 0.164-0.133 0.296-0.296 0.296s-0.296-0.133-0.296-0.296v-0.73h-0.68v0.73c0 0.164-0.133 0.296-0.296 0.296s-0.296-0.133-0.296-0.296v-10.943c0-0.164 0.133-0.296 0.296-0.296zM11.49 21.248h4.963c1.275 0 2.309-1.034 2.309-2.309 0-1.416-1.173-2.57-2.595-2.57h-4.677v4.879zM11.49 15.776h4.369c-0.15-1.775-1.639-3.169-3.453-3.169h-0.916v3.169zM32.239 6.218l-0.264-0.673-3.205 7.489 3.204 4.412 2.938-4.414-2.673-6.814zM31.961 13.172l-2.432-0.406 2.422-5.659 2.221 5.662-2.212 0.403zM32.017 13.765l1.931-0.352-1.994 2.995-2.179-3.001 2.192 0.366 0.051-0.009z"></path>
</symbol>
<symbol id="icon-indices" viewBox="0 0 31 32">
<path   d="M30.452 0.516v28.387h-5.161v-28.387h5.161zM24.774 0v29.419h6.194v-29.419h-6.194zM0.516 3.355v25.548h5.161v-25.548h-5.161zM0 29.419v-26.581h6.194v26.581h-6.194zM8.258 11.871h6.194v17.548h-6.194v-17.548zM17.032 19.871v9.032h5.161v-9.032h-5.161zM16.516 29.419v-10.065h6.194v10.065h-6.194zM30.968 31.226v0.774h-30.968v-0.774h30.968z"></path>
</symbol>
<symbol id="icon-Shares" viewBox="0 0 43 32">
<path   d="M40.794 1.231c0.436 0 0.79 0.354 0.79 0.79s-0.354 0.79-0.79 0.79c-0.436 0-0.79-0.354-0.79-0.79s0.354-0.79 0.79-0.79zM38.773 2.021c0 0.425 0.132 0.82 0.356 1.146-0.008 0.008-0.016 0.016-0.024 0.025l-8.961 10.015c-0.006 0.007-0.012 0.014-0.018 0.021-0.278-0.144-0.594-0.226-0.929-0.226-0.184 0-0.361 0.024-0.531 0.070l-6.289-7.613c0.257-0.379 0.407-0.837 0.407-1.329 0-1.31-1.062-2.372-2.372-2.372s-2.372 1.062-2.372 2.372c0 0.298 0.055 0.583 0.155 0.845l-3.405 3.869c-0.468-0.261-1.008-0.41-1.582-0.41-1.795 0-3.251 1.455-3.251 3.251s1.456 3.251 3.251 3.251c1.795 0 3.251-1.456 3.251-3.251 0-0.777-0.272-1.49-0.727-2.049l3.208-3.645c0.404 0.32 0.916 0.511 1.472 0.511 0.371 0 0.722-0.085 1.035-0.237l6.182 7.483c-0.283 0.348-0.453 0.791-0.453 1.275 0 1.116 0.905 2.021 2.021 2.021s2.021-0.905 2.021-2.021c0-0.335-0.082-0.651-0.226-0.929 0.024-0.020 0.047-0.042 0.069-0.066l8.961-10.015c0.027-0.030 0.050-0.062 0.070-0.095 0.218 0.081 0.455 0.125 0.701 0.125 1.116 0 2.021-0.905 2.021-2.021s-0.905-2.021-2.021-2.021c-1.116 0-2.021 0.905-2.021 2.021zM20.413 2.988c0.631 0 1.142 0.511 1.142 1.142s-0.511 1.142-1.142 1.142c-0.63 0-1.142-0.511-1.142-1.142s0.511-1.142 1.142-1.142zM11.189 11.684c0-1.116 0.904-2.020 2.020-2.020s2.020 0.904 2.020 2.020c0 1.116-0.904 2.020-2.020 2.020s-2.020-0.904-2.020-2.020zM28.408 15.023c0-0.436 0.354-0.79 0.79-0.79s0.79 0.354 0.79 0.79c0 0.436-0.354 0.79-0.79 0.79s-0.79-0.354-0.79-0.79zM8.030 2.94c0-0.34-0.276-0.615-0.615-0.615s-0.615 0.276-0.615 0.615v27.459h-6.184c-0.34 0-0.615 0.276-0.615 0.615s0.276 0.615 0.615 0.615h41.453c0.34 0 0.615-0.276 0.615-0.615s-0.276-0.615-0.615-0.615h-3.113v-13.818h-4.521v13.818h-1.401v-9.651h-5.398v9.651h-1.401v-6.141h-4.301v6.141h-0.963v-9.651h-4.521v9.651h-0.743v-5.703h-4.74v5.703h-2.937v-27.459zM37.725 17.811v12.587h-2.059v-12.587h2.059zM31.803 21.979v8.42h-2.936v-8.42h2.936zM25.004 25.488v4.91h-1.84v-4.91h1.84zM19.74 21.979v8.42h-2.059v-8.42h2.059zM14.476 25.927v4.472h-2.278v-4.472h2.278z"></path>
</symbol>
<symbol id="icon-usd-eur" viewBox="0 0 42 32">
<path   d="M0.615 0h-0.615v17.719h3.016v0.723c0 0.439 0.296 0.823 0.721 0.934l0.752 0.196c3.48 0.91 3.346 5.896-0.178 6.617-0.753 0.154-1.294 0.817-1.294 1.586v3.818h38.228v-17.719h-3.016v-0.071c0-0.174 0.109-0.329 0.272-0.389 4.118-1.498 4.165-7.305 0.071-8.869l-0.343-0.131v-4.414h-37.612zM38.228 15.105h1.785v15.257h-35.766v-2.587c0-0.184 0.13-0.343 0.31-0.38 4.801-0.982 4.984-7.774 0.243-9.013l-0.553-0.145v-0.518h33.981v-2.614zM1.231 16.488v-15.257h35.766v3.359c0 0.404 0.25 0.767 0.627 0.911l0.508 0.194c3.029 1.157 2.995 5.454-0.052 6.562-0.65 0.236-1.083 0.854-1.083 1.546v2.685h-35.766zM17.565 11.272h-3.069v-4.574h3.066v0.738h-2.124v1.125h1.81v0.716h-1.81v1.26h2.127v0.735zM21.58 6.698v3.022c0 0.352-0.075 0.648-0.226 0.889-0.149 0.241-0.355 0.422-0.619 0.543-0.262 0.121-0.563 0.182-0.905 0.182s-0.645-0.061-0.911-0.182c-0.264-0.121-0.471-0.303-0.622-0.543-0.149-0.241-0.223-0.537-0.223-0.889v-3.022h0.943v3.022c0 0.205 0.032 0.373 0.097 0.503s0.158 0.225 0.28 0.286c0.124 0.061 0.269 0.091 0.437 0.091 0.172 0 0.317-0.030 0.437-0.091 0.121-0.061 0.214-0.156 0.276-0.286 0.065-0.13 0.097-0.297 0.097-0.503v-3.022h0.939zM22.356 6.698v4.574h0.943v-1.693h0.749l0.866 1.693h1.009v-0.044l-0.99-1.877c0.128-0.058 0.243-0.126 0.346-0.206 0.151-0.117 0.267-0.263 0.349-0.437 0.084-0.176 0.126-0.386 0.126-0.631 0-0.3-0.068-0.552-0.204-0.757s-0.331-0.36-0.584-0.465c-0.251-0.105-0.552-0.157-0.902-0.157h-1.706zM24.068 8.844h-0.77v-1.407h0.763c0.168 0 0.307 0.028 0.418 0.085s0.194 0.138 0.248 0.245c0.054 0.107 0.082 0.233 0.082 0.38 0 0.138-0.028 0.26-0.085 0.364-0.054 0.105-0.136 0.186-0.245 0.245s-0.246 0.088-0.412 0.088zM23.933 23.748c0 0.103-0.026 0.195-0.079 0.276-0.050 0.082-0.129 0.146-0.236 0.192-0.105 0.046-0.239 0.069-0.402 0.069-0.134 0-0.258-0.014-0.371-0.041-0.111-0.027-0.207-0.071-0.289-0.132-0.080-0.061-0.141-0.14-0.185-0.239s-0.066-0.219-0.066-0.361h-0.946c0 0.258 0.053 0.481 0.16 0.669s0.249 0.343 0.427 0.465c0.18 0.121 0.38 0.213 0.6 0.273 0.22 0.059 0.443 0.088 0.669 0.088 0.251 0 0.479-0.028 0.682-0.085s0.378-0.139 0.525-0.248c0.147-0.109 0.259-0.242 0.336-0.399s0.116-0.335 0.116-0.534c0-0.189-0.032-0.357-0.097-0.506s-0.161-0.282-0.289-0.399c-0.128-0.117-0.287-0.223-0.478-0.317-0.189-0.094-0.407-0.179-0.657-0.254-0.149-0.046-0.28-0.093-0.393-0.141s-0.208-0.099-0.286-0.154c-0.078-0.054-0.136-0.113-0.176-0.176-0.038-0.063-0.057-0.133-0.057-0.211 0-0.103 0.027-0.195 0.082-0.276 0.054-0.084 0.136-0.15 0.245-0.198 0.109-0.050 0.245-0.075 0.408-0.075 0.17 0 0.31 0.029 0.421 0.088 0.113 0.059 0.197 0.139 0.251 0.242 0.057 0.101 0.085 0.218 0.085 0.352h0.936c0-0.272-0.070-0.514-0.211-0.726-0.138-0.212-0.333-0.378-0.584-0.5s-0.546-0.182-0.883-0.182c-0.247 0-0.474 0.030-0.682 0.091-0.205 0.061-0.383 0.148-0.534 0.261-0.151 0.111-0.268 0.245-0.352 0.402-0.084 0.155-0.126 0.328-0.126 0.518 0 0.197 0.040 0.37 0.119 0.518 0.082 0.149 0.193 0.28 0.333 0.393 0.142 0.111 0.306 0.208 0.49 0.292 0.186 0.084 0.383 0.159 0.591 0.226 0.186 0.059 0.338 0.115 0.456 0.17s0.208 0.11 0.273 0.167c0.065 0.054 0.109 0.115 0.132 0.182 0.025 0.065 0.038 0.138 0.038 0.22zM19.837 20.371v3.022c0 0.205-0.032 0.373-0.097 0.503-0.063 0.13-0.155 0.225-0.276 0.286-0.119 0.061-0.265 0.091-0.437 0.091-0.168 0-0.313-0.030-0.437-0.091-0.121-0.061-0.215-0.156-0.28-0.286s-0.097-0.297-0.097-0.503v-3.022h-0.943v3.022c0 0.352 0.074 0.648 0.223 0.889 0.151 0.241 0.358 0.422 0.622 0.544 0.266 0.121 0.57 0.182 0.911 0.182s0.643-0.061 0.905-0.182c0.264-0.121 0.47-0.303 0.619-0.544 0.151-0.241 0.226-0.537 0.226-0.889v-3.022h-0.939zM26.459 24.945h-0.943v-4.574h1.414c0.306 0 0.585 0.052 0.839 0.157 0.256 0.103 0.477 0.25 0.663 0.443s0.33 0.423 0.43 0.691c0.103 0.266 0.154 0.562 0.154 0.889v0.217c0 0.325-0.051 0.621-0.154 0.889-0.101 0.268-0.244 0.499-0.43 0.691-0.184 0.191-0.405 0.338-0.663 0.443-0.256 0.103-0.538 0.154-0.848 0.154h-0.462zM26.459 24.21h0.462c0.247 0 0.456-0.055 0.625-0.167 0.17-0.113 0.297-0.278 0.383-0.493 0.088-0.216 0.132-0.477 0.132-0.782v-0.223c0-0.235-0.025-0.441-0.075-0.619-0.048-0.178-0.12-0.328-0.217-0.449s-0.215-0.213-0.355-0.273c-0.14-0.063-0.302-0.094-0.484-0.094h-0.471v3.101z"></path>
</symbol>
</defs>
</svg>
